<svg width="34" height="34" viewBox="0 0 34 34" fill="none" xmlns="http://www.w3.org/2000/svg">
<g clip-path="url(#clip0_72_17)">
<path d="M33.1533 6.92278C31.9825 7.44162 30.7246 7.79218 29.4023 7.95063C30.7667 7.13423 31.7875 5.84932 32.2741 4.33564C30.9923 5.09704 29.5893 5.63299 28.1263 5.92018C27.1424 4.86971 25.8393 4.17344 24.4192 3.93947C22.9991 3.7055 21.5415 3.94692 20.2726 4.62626C19.0038 5.30559 17.9947 6.38483 17.4021 7.69641C16.8095 9.00799 16.6665 10.4785 16.9952 11.8797C14.3978 11.7493 11.8569 11.0742 9.53728 9.89822C7.21768 8.72223 5.17126 7.07165 3.53086 5.05359C2.96996 6.02114 2.64744 7.14294 2.64744 8.33765C2.64682 9.41317 2.91167 10.4722 3.41851 11.4208C3.92534 12.3694 4.65849 13.1783 5.5529 13.7756C4.51562 13.7426 3.50123 13.4623 2.59416 12.9581V13.0422C2.59405 14.5506 3.11584 16.0127 4.07098 17.1802C5.02612 18.3478 6.35579 19.1489 7.83436 19.4477C6.87211 19.7081 5.86327 19.7464 4.88403 19.5598C5.30119 20.8578 6.11379 21.9928 7.20807 22.8059C8.30234 23.6191 9.62351 24.0697 10.9866 24.0947C8.67267 25.9112 5.81496 26.8965 2.8732 26.8922C2.3521 26.8923 1.83144 26.8619 1.3139 26.801C4.29996 28.721 7.77594 29.7399 11.326 29.7359C23.3432 29.7359 29.9127 19.7828 29.9127 11.1506C29.9127 10.8701 29.9057 10.5869 29.8931 10.3064C31.171 9.38229 32.274 8.23795 33.1505 6.92699L33.1533 6.92278Z" fill="#F8F8F8"/>
</g>
<defs>
<clipPath id="clip0_72_17">
<rect width="33.6539" height="33.6539" fill="white"/>
</clipPath>
</defs>
</svg>
