<svg width="172" height="25" viewBox="0 0 172 25" fill="none" xmlns="http://www.w3.org/2000/svg">
<path d="M10.656 5.44V24.16H5.40798V5.44H-2.48849e-05L0.511975 1.504H15.776L15.264 5.44H10.656ZM21.719 10.4C22.039 9.26934 22.5723 8.37334 23.319 7.712C24.0656 7.05067 24.9296 6.72 25.911 6.72C26.9136 6.72 27.8203 6.92267 28.631 7.328L27.511 11.2C26.8496 11.008 26.2843 10.912 25.815 10.912C24.983 10.912 24.2256 11.2213 23.543 11.84C22.8816 12.4587 22.551 13.3653 22.551 14.56V24.16H17.655V12.096L17.303 7.36L21.015 6.88L21.591 10.4H21.719ZM37.2025 12.512C37.2025 11.808 37.0531 11.296 36.7545 10.976C36.4558 10.6347 35.8798 10.464 35.0265 10.464C34.1731 10.464 32.7651 10.7733 30.8025 11.392L29.4265 8.384C30.1518 7.97867 31.1545 7.60534 32.4345 7.264C33.7358 6.90134 35.0051 6.72 36.2425 6.72C37.5011 6.72 38.5465 6.86934 39.3785 7.168C40.2318 7.46667 40.8398 7.91467 41.2025 8.512C41.5865 9.088 41.8318 9.664 41.9385 10.24C42.0665 10.816 42.1305 11.5413 42.1305 12.416V18.432C42.1305 19.2213 42.2051 19.8613 42.3545 20.352C42.5251 20.8427 42.8771 21.376 43.4105 21.952L40.6265 24.544C40.1358 24.3093 39.6558 23.9573 39.1865 23.488C38.7385 23.0187 38.4078 22.5813 38.1945 22.176H38.0665C36.8291 23.7547 35.2611 24.544 33.3625 24.544C30.2905 24.544 28.7545 22.9547 28.7545 19.776C28.7545 18.0907 29.2345 16.832 30.1945 16C31.1758 15.168 32.5838 14.592 34.4185 14.272L37.2025 13.792V12.512ZM33.3945 19.264C33.3945 20.3093 33.9491 20.832 35.0585 20.832C35.9118 20.832 36.6371 20.5333 37.2345 19.936V16.928C35.8691 17.12 34.8878 17.3867 34.2905 17.728C33.6931 18.048 33.3945 18.56 33.3945 19.264ZM53.4727 6.848L57.9527 7.36L53.7287 24.16H48.0007L43.5527 7.328L48.2887 6.848L50.8167 19.808H51.0087L53.4727 6.848ZM66.6965 6.72C68.8298 6.72 70.3978 7.30667 71.4005 8.48C72.2325 9.44 72.7445 11.04 72.9365 13.28C73.0005 14.176 73.0325 15.296 73.0325 16.64L70.7605 16.96H64.1685C64.1685 18.2187 64.4031 19.168 64.8725 19.808C65.3418 20.4267 66.1738 20.736 67.3685 20.736C68.5845 20.736 70.0458 20.4267 71.7525 19.808L72.7445 22.816C70.7178 23.968 68.6058 24.544 66.4085 24.544C61.4378 24.544 58.9525 21.6 58.9525 15.712C58.9525 12.9387 59.5925 10.752 60.8725 9.152C62.1738 7.53067 64.1151 6.72 66.6965 6.72ZM67.7845 11.264C67.5711 10.7733 67.0911 10.528 66.3445 10.528C65.5978 10.528 65.0645 10.8053 64.7445 11.36C64.4245 11.8933 64.2431 12.704 64.2005 13.792H68.1045C68.1045 12.576 67.9978 11.7333 67.7845 11.264ZM80.2682 18.304C80.2682 19.3493 80.3322 20.1173 80.4602 20.608C80.6096 21.0987 80.9616 21.6853 81.5162 22.368L77.9962 24.96C76.9722 23.872 76.2682 22.9227 75.8842 22.112C75.5216 21.28 75.3402 20.0427 75.3402 18.4V0.544003L80.2682 1.90735e-06V18.304ZM90.606 1.504H98.798C101.721 1.504 103.737 2.19734 104.846 3.584C105.806 4.82134 106.286 6.4 106.286 8.32C106.286 10.304 105.699 12.0427 104.526 13.536C103.907 14.3467 102.969 14.9973 101.71 15.488C100.473 15.9573 98.9793 16.192 97.23 16.192H95.854V24.16H90.606V1.504ZM95.854 5.088V12.416H97.582C98.67 12.416 99.4486 12.128 99.918 11.552C100.409 10.976 100.654 10.0693 100.654 8.832C100.654 7.57334 100.451 6.63467 100.046 6.016C99.6406 5.39734 98.8193 5.088 97.582 5.088H95.854ZM115.889 6.72C117.063 6.72 118.087 6.90134 118.961 7.264C119.836 7.62667 120.519 8.096 121.009 8.672C121.521 9.22667 121.927 9.92 122.225 10.752C122.716 12.1173 122.961 13.792 122.961 15.776C122.961 18.8267 122.108 21.1413 120.401 22.72C119.1 23.936 117.308 24.544 115.025 24.544C113.852 24.544 112.828 24.3627 111.953 24C111.079 23.6373 110.385 23.1787 109.873 22.624C109.383 22.048 108.977 21.344 108.657 20.512C108.167 19.1893 107.921 17.5147 107.921 15.488C107.921 13.6107 108.295 11.9573 109.041 10.528C110.343 7.98934 112.625 6.72 115.889 6.72ZM117.745 15.712C117.745 13.7707 117.596 12.4267 117.297 11.68C116.999 10.912 116.359 10.528 115.377 10.528C114.417 10.528 113.799 10.8907 113.521 11.616C113.265 12.3413 113.137 13.664 113.137 15.584C113.137 17.504 113.287 18.848 113.585 19.616C113.884 20.3627 114.524 20.736 115.505 20.736C116.487 20.736 117.105 20.384 117.361 19.68C117.617 18.9547 117.745 17.632 117.745 15.712ZM129.531 10.4C129.851 9.26934 130.385 8.37334 131.131 7.712C131.878 7.05067 132.742 6.72 133.723 6.72C134.726 6.72 135.633 6.92267 136.443 7.328L135.323 11.2C134.662 11.008 134.097 10.912 133.627 10.912C132.795 10.912 132.038 11.2213 131.355 11.84C130.694 12.4587 130.363 13.3653 130.363 14.56V24.16H125.467V12.096L125.115 7.36L128.827 6.88L129.403 10.4H129.531ZM143.351 6.976H147.671L147.095 10.528H143.351V17.856C143.351 18.944 143.5 19.7013 143.799 20.128C144.098 20.5547 144.61 20.768 145.335 20.768C145.634 20.768 146.242 20.6613 147.159 20.448L148.023 23.296C147.618 23.616 146.956 23.904 146.039 24.16C145.143 24.416 144.322 24.544 143.575 24.544C141.463 24.544 140.076 24.0107 139.415 22.944C138.775 21.856 138.455 20.0853 138.455 17.632V10.528H135.991L136.439 7.328L138.551 7.04L138.743 3.84L143.351 2.464V6.976ZM157.046 12.512C157.046 11.808 156.897 11.296 156.598 10.976C156.3 10.6347 155.724 10.464 154.87 10.464C154.017 10.464 152.609 10.7733 150.646 11.392L149.27 8.384C149.996 7.97867 150.998 7.60534 152.278 7.264C153.58 6.90134 154.849 6.72 156.086 6.72C157.345 6.72 158.39 6.86934 159.222 7.168C160.076 7.46667 160.684 7.91467 161.046 8.512C161.43 9.088 161.676 9.664 161.782 10.24C161.91 10.816 161.974 11.5413 161.974 12.416V18.432C161.974 19.2213 162.049 19.8613 162.198 20.352C162.369 20.8427 162.721 21.376 163.254 21.952L160.47 24.544C159.98 24.3093 159.5 23.9573 159.03 23.488C158.582 23.0187 158.252 22.5813 158.038 22.176H157.91C156.673 23.7547 155.105 24.544 153.206 24.544C150.134 24.544 148.598 22.9547 148.598 19.776C148.598 18.0907 149.078 16.832 150.038 16C151.02 15.168 152.428 14.592 154.262 14.272L157.046 13.792V12.512ZM153.238 19.264C153.238 20.3093 153.793 20.832 154.902 20.832C155.756 20.832 156.481 20.5333 157.078 19.936V16.928C155.713 17.12 154.732 17.3867 154.134 17.728C153.537 18.048 153.238 18.56 153.238 19.264ZM169.924 18.304C169.924 19.3493 169.988 20.1173 170.116 20.608C170.266 21.0987 170.618 21.6853 171.172 22.368L167.652 24.96C166.628 23.872 165.924 22.9227 165.54 22.112C165.178 21.28 164.996 20.0427 164.996 18.4V0.544003L169.924 1.90735e-06V18.304Z" fill="white"/>
</svg>
